<?xml version="1.0" encoding="UTF-8" standalone="no"?>
<svg
   xmlns:dc="http://purl.org/dc/elements/1.1/"
   xmlns:cc="http://creativecommons.org/ns#"
   xmlns:rdf="http://www.w3.org/1999/02/22-rdf-syntax-ns#"
   xmlns:svg="http://www.w3.org/2000/svg"
   xmlns="http://www.w3.org/2000/svg"
   xmlns:sodipodi="http://sodipodi.sourceforge.net/DTD/sodipodi-0.dtd"
   xmlns:inkscape="http://www.inkscape.org/namespaces/inkscape"
   width="803.5"
   height="985.5"
   id="svg3336"
   version="1.1"
   inkscape:version="0.91 r13725"
   sodipodi:docname="apple-309571.svg">
  <metadata
     id="metadata3358">
    <rdf:RDF>
      <cc:Work
         rdf:about="">
        <dc:format>image/svg+xml</dc:format>
        <dc:type
           rdf:resource="http://purl.org/dc/dcmitype/StillImage" />
        <dc:title></dc:title>
      </cc:Work>
    </rdf:RDF>
  </metadata>
  <defs
     id="defs3356" />
  <sodipodi:namedview
     pagecolor="#ffffff"
     bordercolor="#666666"
     borderopacity="1"
     objecttolerance="10"
     gridtolerance="10"
     guidetolerance="10"
     inkscape:pageopacity="0"
     inkscape:pageshadow="2"
     inkscape:window-width="1920"
     inkscape:window-height="1027"
     id="namedview3354"
     showgrid="false"
     fit-margin-top="0"
     fit-margin-left="0"
     fit-margin-right="0"
     fit-margin-bottom="0"
     inkscape:zoom="0.81015228"
     inkscape:cx="401.75"
     inkscape:cy="640.8703"
     inkscape:window-x="-8"
     inkscape:window-y="-8"
     inkscape:window-maximized="1"
     inkscape:current-layer="svg3336" />
  <g
     id="g3338"
     style="fill-rule:evenodd;stroke-width:0.5"
     transform="translate(0.25,0.25)">
    <path
       d="m 776.2,333.8 0.3,0.2 0,2 -0.3,0.2 -0.2,0.3 -17.8,13.3 Q 740.5,363 727,377 q -13.5,14 -24,30.5 -10.5,16.5 -17,33 -6.5,16.5 -10,33.5 -3.5,17 -3.5,47 0,30 4,49 4,19 11.5,37 7.5,18 18,34 10.5,16 22,28 11.5,12 23.8,22.2 12.2,10.3 28.2,19.8 16,9.5 17.5,10 l 1.5,0.5 1,0.5 1,0.5 1,0.3 1,0.2 0,2 -13.2,33 q -13.3,33 -27.6,59.2 -14.2,26.3 -33.2,53.8 -19,27.5 -34.2,45.8 -15.3,18.2 -28,30 -12.8,11.7 -26.3,19.7 -13.5,8 -27,12 -13.5,4 -17.5,4.5 l -4,0.5 -1,0.3 -1,0.2 -8,-0.2 q -8,-0.3 -24,-3.3 -16,-3 -48.5,-14.5 -32.5,-11.5 -51,-15.5 -18.5,-4 -38,-4 -19.5,0 -35,3 -15.5,3 -45,13.5 -29.5,10.5 -48,15.5 l -18.5,5 -4,0.5 -4,0.5 0,0.5 -20,0 0,-0.5 -3.5,-0.5 -3.5,-0.5 -2,-0.5 q -2,-0.5 -7,-2 -5,-1.5 -17.5,-7.5 -12.5,-6 -27,-17.5 Q 171,944.5 158.5,931 146,917.5 125.2,889.8 104.5,862 89.8,838.2 75,814.5 61.2,785.8 47.5,757 36,725 24.5,693 16.5,660 8.5,627 4.2,592 L 0,557 l 0,-45 0.5,0 3,-26 q 3,-26 9,-49 6,-23 14.5,-42.5 Q 35.5,375 46.5,357 57.5,339 68.8,325.8 80,312.5 92.5,301 105,289.5 124,277.5 q 19,-12 38.5,-20 19.5,-8 39,-12 19.5,-4 42.5,-4 23,0 47,6 24,6 60.5,19 36.5,13 43,14.5 6.5,1.5 15.5,1 9,-0.5 60.5,-18 51.5,-17.5 71.5,-21.5 20,-4 42.5,-4 22.5,0 47.5,5 25,5 43,12 18,7 33.8,16.3 15.7,9.2 29.2,20.7 13.5,11.5 24.5,24.5 11,13 12.3,14.8 1.2,1.7 1.4,2 z"
       id="path3340"
       inkscape:connector-curvature="0"
       style="fill:#221e20;stroke:#221e20" />
    <g
       id="g3342"
       style="fill:#ffffff;stroke:#ffffff">
      <path
         d="M 0,256 0,0 l 591,0 0,0.2 q 0,0.3 -11.5,2.3 -11.5,2 -30,8.5 -18.5,6.5 -35,15.5 -16.5,9 -31,20 -14.5,11 -26,24 Q 446,83.5 436,98 426,112.5 418.2,128.8 410.5,145 406,163 q -4.5,18 -5.2,41 l -0.8,23 16.5,-0.2 q 16.5,-0.3 34.5,-4.8 18,-4.5 32.8,-12.2 14.7,-7.8 29.4,-19.6 14.8,-11.7 27,-25.4 12.3,-13.8 23.3,-31.3 11,-17.5 18,-34 7,-16.5 11,-33 4,-16.5 5,-36 1,-19.5 0.7,-25 L 598,0 l 205,0 0,723 -1,-0.2 -1,-0.3 -1,-0.5 -1,-0.5 -1.5,-0.5 Q 796,720.5 780,711 764,701.5 751.8,691.2 739.5,681 728,669 q -11.5,-12 -22,-28 -10.5,-16 -18,-34 -7.5,-18 -11.5,-37 -4,-19 -4,-49 0,-30 3.5,-47 3.5,-17 10,-33.5 6.5,-16.5 17,-33 10.5,-16.5 24,-30.5 13.5,-14 31.2,-27.2 l 17.8,-13.3 0.2,-0.3 0.3,-0.2 0,-2 -0.3,-0.2 q -0.2,-0.3 -1.4,-2 Q 773.5,330 762.5,317 751.5,304 738,292.5 724.5,281 708.8,271.8 693,262.5 675,255.5 q -18,-7 -43,-12 -25,-5 -47.5,-5 -22.5,0 -42.5,4 -20,4 -71.5,21.5 -51.5,17.5 -60.5,18 -9,0.5 -15.5,-1 -6.5,-1.5 -43,-14.5 -36.5,-13 -60.5,-19 -24,-6 -47,-6 -23,0 -42.5,4 -19.5,4 -39,12 -19.5,8 -38.5,20 -19,12 -31.5,23.5 Q 80,312.5 68.8,325.8 57.5,339 46.5,357 35.5,375 27,394.5 18.5,414 12.5,437 q -6,23 -9,49 l -3,26 -0.5,0 0,-256 z"
         id="path3344"
         inkscape:connector-curvature="0" />
      <path
         d="m 0,771 0,-214 4.2,35 q 4.3,35 12.3,68 8,33 19.5,65 11.5,32 25.2,60.8 13.8,28.7 28.6,52.4 14.7,23.8 35.4,51.6 20.8,27.7 33.3,41.2 12.5,13.5 27,25 14.5,11.5 27,17.5 12.5,6 17.5,7.5 5,1.5 7,2 l 2,0.5 3.5,0.5 3.5,0.5 0,0.5 -246,0 0,-214 z"
         id="path3346"
         inkscape:connector-curvature="0" />
    </g>
    <path
       d="m 591,0.2 0,-0.2 7,0 0.2,5.5 q 0.3,5.5 -0.7,25 -1,19.5 -5,36 -4,16.5 -11,33 -7,16.5 -18,34 -11,17.5 -23.3,31.3 -12.2,13.7 -27,25.4 -14.7,11.8 -29.4,19.6 -14.8,7.7 -32.8,12.2 -18,4.5 -34.5,4.8 l -16.5,0.2 0.8,-23 q 0.7,-23 5.2,-41 4.5,-18 12.2,-34.2 7.8,-16.3 17.8,-30.8 10,-14.5 21.5,-27.5 11.5,-13 26,-24 14.5,-11 31,-20 16.5,-9 35,-15.5 18.5,-6.5 30,-8.5 11.5,-2 11.5,-2.3 z"
       id="path3348"
       inkscape:connector-curvature="0"
       style="fill:#221e20;stroke:#221e20" />
    <path
       d="m 789.8,758 13.2,-33 0,260 -213,0 0,-1 1,-0.2 1,-0.3 4,-0.5 q 4,-0.5 17.5,-4.5 13.5,-4 27,-12 13.5,-8 26.3,-19.7 12.7,-11.8 28,-30 Q 710,898.5 729,871 748,843.5 762.2,817.2 776.5,791 789.8,758 Z"
       id="path3350"
       inkscape:connector-curvature="0"
       style="fill:#ffffff;stroke:#ffffff" />
    <path
       d="m 582,983.8 8,0.2 0,1 -324,0 0,-0.5 4,-0.5 4,-0.5 18.5,-5 q 18.5,-5 48,-15.5 29.5,-10.5 45,-13.5 15.5,-3 35,-3 19.5,0 38,4 18.5,4 51,15.5 32.5,11.5 48.5,14.5 16,3 24,3.3 z"
       id="path3352"
       inkscape:connector-curvature="0"
       style="fill:#fefefe;stroke:#fefefe" />
  </g>
</svg>
